<svg data-v-0dd9719b="" version="1.0" xmlns="http://www.w3.org/2000/svg" xmlns:xlink="http://www.w3.org/1999/xlink" width="100%" height="100%" viewBox="0 0 340.000000 250.000000" preserveAspectRatio="xMidYMid meet" color-interpolation-filters="sRGB" style="margin: auto;"> <rect data-v-0dd9719b="" x="0" y="0" width="100%" height="100%" fill="#fff" fill-opacity="1" class="background"></rect> <rect data-v-0dd9719b="" x="0" y="0" width="100%" height="100%" fill="url(#watermark)" fill-opacity="1" class="watermarklayer"></rect> <g data-v-0dd9719b="" fill="#333" class="icon-text-wrapper icon-svg-group iconsvg" transform="translate(46.98999786376953,96.23350715637207)"><g class="iconsvg-imagesvg" transform="translate(0,0)"><g><rect fill="#333" fill-opacity="0" stroke-width="2" x="0" y="0" width="60" height="57.53298557839828" class="image-rect"></rect> <svg x="0" y="0" width="60" height="57.53298557839828" filtersec="colorsb8100290020" class="image-svg-svg primary" style="overflow: visible;"><svg xmlns="http://www.w3.org/2000/svg" viewBox="0 0 141.5500030517578 135.72999572753906"><defs><linearGradient id="a3187d438-0732-4bc8-8962-5713a338cc96" x1="95.58" y1="97.56" x2="141.55" y2="97.56" gradientUnits="userSpaceOnUse"><stop offset="0" stop-color="#78a99a"></stop><stop offset="1" stop-color="#a0b8b0"></stop></linearGradient><linearGradient id="bac26e340-7808-4af5-887a-24561fb23ea0" x1="49.38" y1="97.6" x2="95.6" y2="97.6" gradientUnits="userSpaceOnUse"><stop offset="0" stop-color="#065"></stop><stop offset="1" stop-color="#004b47"></stop></linearGradient><linearGradient id="cd883aca9-bedb-40c8-b9e1-1f8d917e86db" x1="45.93" y1="38.13" x2="92.13" y2="38.13" gradientUnits="userSpaceOnUse"><stop offset="0" stop-color="#00a76d"></stop><stop offset="1" stop-color="#00a886"></stop></linearGradient><linearGradient id="d7def21f2-7453-4b31-8ef0-074369ec1377" y1="38.17" x2="45.93" y2="38.17" gradientUnits="userSpaceOnUse"><stop offset="0" stop-color="#a0b8b0"></stop><stop offset="1" stop-color="#78a99a"></stop></linearGradient><linearGradient id="e4ecbaa4c-f69e-4932-95f3-7abe0cd16716" y1="96.64" x2="42.79" y2="96.64" gradientUnits="userSpaceOnUse"><stop offset="0" stop-color="#00a886"></stop><stop offset="1" stop-color="#00a76d"></stop></linearGradient><linearGradient id="f782af34b-48ba-438a-a312-6cd5ff42d5e4" x1="98.77" y1="39.09" x2="141.51" y2="39.09" gradientUnits="userSpaceOnUse"><stop offset="0" stop-color="#004b47"></stop><stop offset="1" stop-color="#065"></stop></linearGradient></defs><path fill="#1a1a1a" d="M98.9 76.21z"></path><path fill="url(#a3187d438-0732-4bc8-8962-5713a338cc96)" d="M141.55 59.47L95.58 85.98v49.67l45.93-26.52V59.52h.04v-.05z"></path><path fill="url(#bac26e340-7808-4af5-887a-24561fb23ea0)" d="M95.52 86.05L49.45 59.47l-.07.07v49.58l46.09 26.57.06.04.04-.01.03.01-.04-.04.02-.04V85.98l-.06.07z"></path><path fill="url(#cd883aca9-bedb-40c8-b9e1-1f8d917e86db)" d="M46.17.04l.02-.04-.01.01-.02-.01-.08.04-.15.05v49.67l.2-.08 46 26.58V26.61L46.17.04z"></path><path fill="#1a1a1a" d="M.13 76.21z"></path><path fill="url(#d7def21f2-7453-4b31-8ef0-074369ec1377)" d="M0 26.61v49.6l.03.05 45.9-26.5V.09L0 26.61z"></path><path fill="url(#e4ecbaa4c-f69e-4932-95f3-7abe0cd16716)" d="M42.78 59.47L0 84.14v49.67l42.75-24.68V59.52h.03v-.05z"></path><path fill="url(#f782af34b-48ba-438a-a312-6cd5ff42d5e4)" d="M141.51 1.93L98.77 26.61v49.6l.03.05 42.71-24.66V1.93z"></path></svg></svg> <!----></g></g> <g transform="translate(67,11.116493225097656)"><g data-gra="path-name" fill-rule="" class="tp-name iconsvg-namesvg"><g transform="scale(1)"><g><path d="M30.09-16.51L30.09-16.51Q30.09-14.38 29.6-12.4 29.11-10.43 28.18-8.7 27.26-6.97 25.94-5.53 24.62-4.09 22.97-3.06 21.32-2.03 19.38-1.46 17.44-0.89 15.27-0.89L15.27-0.89Q13.16-0.89 11.26-1.43 9.35-1.96 7.69-2.93 6.03-3.9 4.69-5.27 3.34-6.64 2.4-8.31 1.45-9.98 0.92-11.9 0.4-13.82 0.4-15.9L0.4-15.9Q0.4-17.93 0.89-19.88 1.38-21.84 2.3-23.57 3.23-25.3 4.54-26.75 5.84-28.2 7.47-29.25 9.09-30.3 10.99-30.88 12.88-31.47 14.99-31.47L14.99-31.47Q18.38-31.47 21.17-30.42 23.96-29.36 25.94-27.41 27.92-25.46 29-22.69 30.09-19.92 30.09-16.51ZM19.71-15.9L19.71-15.9Q19.71-16.9 19.42-17.85 19.12-18.8 18.56-19.53 18-20.27 17.17-20.73 16.34-21.18 15.27-21.18L15.27-21.18Q14.17-21.18 13.3-20.78 12.44-20.39 11.82-19.7 11.2-19.01 10.87-18.08 10.54-17.16 10.54-16.13L10.54-16.13Q10.54-15.15 10.82-14.17 11.11-13.19 11.67-12.39 12.23-11.6 13.06-11.11 13.89-10.61 14.99-10.61L14.99-10.61Q16.09-10.61 16.96-11.05 17.84-11.48 18.45-12.22 19.05-12.95 19.38-13.91 19.71-14.87 19.71-15.9ZM52.49-33.15L63.52-33.53 61.84-1.82 49.59-0.7 43.04-17.68 42.01-0.37 31.49-0.37 32.33-33.53 44.02-34.09 52.11-17.25 52.49-33.15ZM88.98-34.09L101.56-34.09 99.41 0.23 88.75 0.7 88.84-17.39 84.03-2.81 79.91-2.81 76.22-15.85 76.17-0.7 65.37-0.37 65.84-32.68 77.85-33.15 82.62-17.68 88.98-34.09ZM103.45-32.26L115.89-32.92 113.32-1.08 103.45-0.56 103.45-32.26ZM138.27-33.15L149.3-33.53 147.62-1.82 135.37-0.7 128.82-17.68 127.79-0.37 117.27-0.37 118.11-33.53 129.8-34.09 137.89-17.25 138.27-33.15ZM179.13-20.48L179.42-4.77Q178.32-3.39 176.7-2.36 175.09-1.33 173.24-0.65 171.4 0.02 169.46 0.36 167.52 0.7 165.76 0.7L165.76 0.7Q162.37 0.7 159.52-0.51 156.67-1.73 154.6-3.87 152.53-6.01 151.36-8.91 150.19-11.81 150.19-15.15L150.19-15.15Q150.19-17.7 150.78-20.14 151.36-22.58 152.45-24.75 153.53-26.91 155.1-28.72 156.67-30.53 158.65-31.84 160.64-33.15 163-33.88 165.36-34.6 168.05-34.6L168.05-34.6Q169.06-34.6 170.2-34.52 171.35-34.44 172.48-34.24 173.62-34.04 174.69-33.69 175.77-33.34 176.66-32.83L176.66-32.83 176-23.89Q174.69-24.38 173.3-24.56 171.91-24.74 170.58-24.74L170.58-24.74Q168.71-24.74 167.08-24.16 165.46-23.59 164.25-22.51 163.05-21.44 162.35-19.9 161.65-18.35 161.65-16.41L161.65-16.41Q161.65-15.2 161.97-14.06 162.3-12.93 162.97-12.05 163.63-11.18 164.63-10.64 165.62-10.1 166.93-10.1L166.93-10.1Q167.82-10.1 168.77-10.33 169.71-10.57 170.39-11.13L170.39-11.13 170.48-12.95 164.87-13.05 165.15-20.06Q168.64-20.18 172.12-20.26 175.6-20.34 179.13-20.48L179.13-20.48Z" transform="translate(-0.4000000059604645, 34.599998474121094)"></path></g> <!----> <!----> <!----> <!----> <!----> <!----> <!----></g></g> <!----></g></g><defs v-gra="od"></defs></svg>